<mxfile host="Electron" agent="Mozilla/5.0 (Windows NT 10.0; Win64; x64) AppleWebKit/537.36 (KHTML, like Gecko) draw.io/26.2.2 Chrome/134.0.6998.178 Electron/35.1.2 Safari/537.36" version="26.2.2">
  <diagram name="Page-1" id="SzvORtWnNOIttuqE-JdV">
    <mxGraphModel dx="858" dy="513" grid="1" gridSize="10" guides="1" tooltips="1" connect="1" arrows="1" fold="1" page="1" pageScale="1" pageWidth="827" pageHeight="1169" math="0" shadow="0">
      <root>
        <mxCell id="0" />
        <mxCell id="1" parent="0" />
        <mxCell id="Q-cWUL6rgaFLfGCyFg-n-1" value="" style="rounded=0;whiteSpace=wrap;html=1;dashed=1;" parent="1" vertex="1">
          <mxGeometry x="90" y="160" width="120" height="460" as="geometry" />
        </mxCell>
        <mxCell id="Q-cWUL6rgaFLfGCyFg-n-2" value="&lt;font style=&quot;font-size: 24px;&quot;&gt;Source&lt;/font&gt;" style="rounded=0;whiteSpace=wrap;html=1;dashed=1;dashPattern=8 8;strokeColor=none;" parent="1" vertex="1">
          <mxGeometry x="90" y="130" width="120" height="40" as="geometry" />
        </mxCell>
        <mxCell id="Q-cWUL6rgaFLfGCyFg-n-3" value="" style="rounded=0;whiteSpace=wrap;html=1;dashed=1;" parent="1" vertex="1">
          <mxGeometry x="260" y="160" width="510" height="460" as="geometry" />
        </mxCell>
        <mxCell id="Q-cWUL6rgaFLfGCyFg-n-4" value="&lt;font style=&quot;font-size: 24px;&quot;&gt;Data Warehouse&amp;nbsp;&lt;/font&gt;&lt;div&gt;&lt;font style=&quot;font-size: 24px;&quot;&gt;&lt;br&gt;&lt;/font&gt;&lt;/div&gt;" style="rounded=0;whiteSpace=wrap;html=1;dashed=1;dashPattern=8 8;strokeColor=none;" parent="1" vertex="1">
          <mxGeometry x="350" y="140" width="310" height="40" as="geometry" />
        </mxCell>
        <mxCell id="Q-cWUL6rgaFLfGCyFg-n-5" value="" style="rounded=0;whiteSpace=wrap;html=1;dashed=1;" parent="1" vertex="1">
          <mxGeometry x="790" y="160" width="120" height="460" as="geometry" />
        </mxCell>
        <mxCell id="Q-cWUL6rgaFLfGCyFg-n-6" value="&lt;font style=&quot;font-size: 16px;&quot;&gt;Bronze&amp;nbsp;&lt;/font&gt;" style="rounded=0;whiteSpace=wrap;html=1;dashed=1;dashPattern=8 8;strokeColor=default;" parent="1" vertex="1">
          <mxGeometry x="294" y="170" width="120" height="40" as="geometry" />
        </mxCell>
        <mxCell id="Q-cWUL6rgaFLfGCyFg-n-7" value="" style="rounded=0;whiteSpace=wrap;html=1;dashed=1;" parent="1" vertex="1">
          <mxGeometry x="294" y="200" width="126" height="400" as="geometry" />
        </mxCell>
        <mxCell id="Q-cWUL6rgaFLfGCyFg-n-8" value="&lt;font style=&quot;font-size: 16px;&quot;&gt;Silver&lt;/font&gt;" style="rounded=0;whiteSpace=wrap;html=1;dashed=1;dashPattern=8 8;strokeColor=default;" parent="1" vertex="1">
          <mxGeometry x="450" y="170" width="135" height="40" as="geometry" />
        </mxCell>
        <mxCell id="Q-cWUL6rgaFLfGCyFg-n-9" value="" style="rounded=0;whiteSpace=wrap;html=1;dashed=1;" parent="1" vertex="1">
          <mxGeometry x="445" y="200" width="145" height="400" as="geometry" />
        </mxCell>
        <mxCell id="Q-cWUL6rgaFLfGCyFg-n-11" value="&lt;font style=&quot;font-size: 16px;&quot;&gt;Gold&lt;/font&gt;" style="rounded=0;whiteSpace=wrap;html=1;dashed=1;dashPattern=8 8;strokeColor=default;" parent="1" vertex="1">
          <mxGeometry x="620" y="170" width="120" height="40" as="geometry" />
        </mxCell>
        <mxCell id="Q-cWUL6rgaFLfGCyFg-n-12" value="" style="rounded=0;whiteSpace=wrap;html=1;dashed=1;" parent="1" vertex="1">
          <mxGeometry x="610" y="200" width="140" height="400" as="geometry" />
        </mxCell>
        <mxCell id="Q-cWUL6rgaFLfGCyFg-n-13" value="&lt;font style=&quot;font-size: 24px;&quot;&gt;Consume&lt;/font&gt;" style="rounded=0;whiteSpace=wrap;html=1;dashed=1;dashPattern=8 8;strokeColor=none;" parent="1" vertex="1">
          <mxGeometry x="790" y="130" width="120" height="40" as="geometry" />
        </mxCell>
        <mxCell id="Q-cWUL6rgaFLfGCyFg-n-14" value="CRM" style="image;aspect=fixed;html=1;points=[];align=center;fontSize=12;image=img/lib/azure2/general/Folder_Blank.svg;" parent="1" vertex="1">
          <mxGeometry x="130" y="250" width="36.96" height="30" as="geometry" />
        </mxCell>
        <mxCell id="Q-cWUL6rgaFLfGCyFg-n-15" value="ERP&lt;div&gt;&lt;br&gt;&lt;/div&gt;" style="image;aspect=fixed;html=1;points=[];align=center;fontSize=12;image=img/lib/azure2/general/Folder_Blank.svg;" parent="1" vertex="1">
          <mxGeometry x="131.52" y="340" width="36.96" height="30" as="geometry" />
        </mxCell>
        <mxCell id="Q-cWUL6rgaFLfGCyFg-n-21" value="" style="shape=link;html=1;rounded=0;" parent="1" edge="1">
          <mxGeometry width="100" relative="1" as="geometry">
            <mxPoint x="100" y="410" as="sourcePoint" />
            <mxPoint x="200" y="410" as="targetPoint" />
          </mxGeometry>
        </mxCell>
        <mxCell id="Q-cWUL6rgaFLfGCyFg-n-22" value="&lt;font style=&quot;font-size: 10px;&quot;&gt;object type : csv file&lt;/font&gt;&lt;div&gt;&lt;font style=&quot;font-size: 9px;&quot;&gt;Interface: file in folder&amp;nbsp;&lt;/font&gt;&lt;/div&gt;" style="text;html=1;align=center;verticalAlign=middle;whiteSpace=wrap;rounded=0;" parent="1" vertex="1">
          <mxGeometry x="100" y="420" width="100" height="30" as="geometry" />
        </mxCell>
        <mxCell id="Q-cWUL6rgaFLfGCyFg-n-23" value="" style="image;html=1;image=img/lib/clip_art/computers/Database_128x128.png" parent="1" vertex="1">
          <mxGeometry x="314" y="220" width="80" height="40" as="geometry" />
        </mxCell>
        <mxCell id="Q-cWUL6rgaFLfGCyFg-n-24" value="" style="image;html=1;image=img/lib/clip_art/computers/Database_128x128.png" parent="1" vertex="1">
          <mxGeometry x="465" y="220" width="80" height="40" as="geometry" />
        </mxCell>
        <mxCell id="Q-cWUL6rgaFLfGCyFg-n-25" value="" style="image;html=1;image=img/lib/clip_art/computers/Database_128x128.png" parent="1" vertex="1">
          <mxGeometry x="640" y="210" width="80" height="40" as="geometry" />
        </mxCell>
        <mxCell id="Q-cWUL6rgaFLfGCyFg-n-30" value="Raw Data" style="text;html=1;align=center;verticalAlign=middle;whiteSpace=wrap;rounded=0;" parent="1" vertex="1">
          <mxGeometry x="324" y="270" width="60" height="30" as="geometry" />
        </mxCell>
        <mxCell id="Q-cWUL6rgaFLfGCyFg-n-31" value="Clean Standardized data&amp;nbsp;" style="text;html=1;align=center;verticalAlign=middle;whiteSpace=wrap;rounded=0;" parent="1" vertex="1">
          <mxGeometry x="475" y="280" width="60" height="30" as="geometry" />
        </mxCell>
        <mxCell id="Q-cWUL6rgaFLfGCyFg-n-32" value="Business ready Data" style="text;html=1;align=center;verticalAlign=middle;whiteSpace=wrap;rounded=0;" parent="1" vertex="1">
          <mxGeometry x="650" y="280" width="60" height="30" as="geometry" />
        </mxCell>
        <mxCell id="Q-cWUL6rgaFLfGCyFg-n-33" value="" style="shape=link;html=1;rounded=0;" parent="1" edge="1">
          <mxGeometry width="100" relative="1" as="geometry">
            <mxPoint x="304" y="329.5" as="sourcePoint" />
            <mxPoint x="404" y="329.5" as="targetPoint" />
          </mxGeometry>
        </mxCell>
        <mxCell id="Q-cWUL6rgaFLfGCyFg-n-34" value="" style="shape=link;html=1;rounded=0;" parent="1" edge="1">
          <mxGeometry width="100" relative="1" as="geometry">
            <mxPoint x="455" y="329.5" as="sourcePoint" />
            <mxPoint x="555" y="329.5" as="targetPoint" />
          </mxGeometry>
        </mxCell>
        <mxCell id="Q-cWUL6rgaFLfGCyFg-n-35" value="" style="shape=link;html=1;rounded=0;" parent="1" edge="1">
          <mxGeometry width="100" relative="1" as="geometry">
            <mxPoint x="630" y="329.5" as="sourcePoint" />
            <mxPoint x="730" y="329.5" as="targetPoint" />
          </mxGeometry>
        </mxCell>
        <mxCell id="Q-cWUL6rgaFLfGCyFg-n-36" value="&lt;font style=&quot;font-size: 10px;&quot;&gt;object type : Table&lt;/font&gt;&lt;div style=&quot;&quot;&gt;&lt;font style=&quot;font-size: 9px;&quot;&gt;Load:&amp;nbsp;&lt;/font&gt;&lt;/div&gt;&lt;div style=&quot;&quot;&gt;&lt;ul&gt;&lt;li&gt;&lt;font style=&quot;font-size: 9px;&quot;&gt;Batch processing&lt;/font&gt;&lt;/li&gt;&lt;li&gt;&lt;font size=&quot;1&quot;&gt;Full load&lt;/font&gt;&lt;/li&gt;&lt;/ul&gt;&lt;font size=&quot;1&quot;&gt;No Transformation&lt;/font&gt;&lt;/div&gt;&lt;div style=&quot;&quot;&gt;&lt;font size=&quot;1&quot;&gt;Data Model: None( as is )&lt;/font&gt;&lt;/div&gt;" style="text;html=1;align=left;verticalAlign=middle;whiteSpace=wrap;rounded=0;" parent="1" vertex="1">
          <mxGeometry x="300" y="385" width="120" height="30" as="geometry" />
        </mxCell>
        <mxCell id="Q-cWUL6rgaFLfGCyFg-n-40" value="&lt;font style=&quot;font-size: 10px;&quot;&gt;&lt;u&gt;object type &lt;/u&gt;: Table&lt;/font&gt;&lt;div style=&quot;&quot;&gt;&lt;font style=&quot;font-size: 9px;&quot;&gt;&lt;u&gt;Load:&lt;/u&gt;&amp;nbsp;&lt;/font&gt;&lt;/div&gt;&lt;div style=&quot;&quot;&gt;&lt;ul&gt;&lt;li&gt;&lt;font style=&quot;font-size: 9px;&quot;&gt;Batch processing&lt;/font&gt;&lt;/li&gt;&lt;li&gt;&lt;font size=&quot;1&quot;&gt;Full load&lt;/font&gt;&lt;/li&gt;&lt;li&gt;&lt;font size=&quot;1&quot;&gt;Truncate &amp;amp; insert&lt;/font&gt;&lt;/li&gt;&lt;/ul&gt;&lt;font size=&quot;1&quot;&gt;&lt;u&gt;&amp;nbsp;Transformation:&lt;/u&gt;&lt;/font&gt;&lt;/div&gt;&lt;div style=&quot;&quot;&gt;&lt;ul&gt;&lt;li&gt;&lt;font size=&quot;1&quot;&gt;Data Cleansing&lt;/font&gt;&lt;/li&gt;&lt;li&gt;&lt;font size=&quot;1&quot;&gt;Data Standrization&lt;/font&gt;&lt;/li&gt;&lt;li&gt;&lt;font size=&quot;1&quot;&gt;Data Normalisation&lt;/font&gt;&lt;/li&gt;&lt;li&gt;&lt;font size=&quot;1&quot;&gt;Derived columns&lt;/font&gt;&lt;/li&gt;&lt;li&gt;&lt;font size=&quot;1&quot;&gt;Data Enrichment&lt;/font&gt;&lt;/li&gt;&lt;/ul&gt;&lt;/div&gt;&lt;div style=&quot;&quot;&gt;&lt;font size=&quot;1&quot;&gt;Data Model: None( as is )&lt;/font&gt;&lt;/div&gt;" style="text;html=1;align=left;verticalAlign=middle;whiteSpace=wrap;rounded=0;" parent="1" vertex="1">
          <mxGeometry x="447.5" y="440" width="135" height="30" as="geometry" />
        </mxCell>
        <mxCell id="Q-cWUL6rgaFLfGCyFg-n-42" value="&lt;font style=&quot;font-size: 10px;&quot;&gt;&lt;u&gt;object type &lt;/u&gt;: View&lt;/font&gt;&lt;div style=&quot;&quot;&gt;&lt;font style=&quot;font-size: 9px;&quot;&gt;&lt;u&gt;Load:&lt;/u&gt; No Load&lt;u&gt;&amp;nbsp;&lt;/u&gt;&lt;/font&gt;&lt;/div&gt;&lt;div style=&quot;&quot;&gt;&lt;font style=&quot;font-size: 9px;&quot;&gt;&lt;u&gt;&lt;br&gt;&lt;/u&gt;&lt;/font&gt;&lt;/div&gt;&lt;div style=&quot;&quot;&gt;&lt;font size=&quot;1&quot;&gt;&lt;u&gt;&amp;nbsp;Transformation:&lt;/u&gt;&lt;/font&gt;&lt;/div&gt;&lt;div style=&quot;&quot;&gt;&lt;ul&gt;&lt;li&gt;&lt;font size=&quot;1&quot;&gt;Data integration&lt;/font&gt;&lt;/li&gt;&lt;li&gt;&lt;font size=&quot;1&quot;&gt;&amp;nbsp;Aggregation&lt;/font&gt;&lt;/li&gt;&lt;li&gt;&lt;font size=&quot;1&quot;&gt;Business Logic&amp;nbsp;&lt;/font&gt;&lt;/li&gt;&lt;/ul&gt;&lt;/div&gt;&lt;div style=&quot;&quot;&gt;&lt;font size=&quot;1&quot;&gt;Data Model:&lt;/font&gt;&lt;/div&gt;&lt;div style=&quot;&quot;&gt;&lt;ul&gt;&lt;li&gt;&lt;font size=&quot;1&quot;&gt;Star Schema&amp;nbsp;&lt;/font&gt;&lt;/li&gt;&lt;li&gt;&lt;font size=&quot;1&quot;&gt;Flat Table&lt;/font&gt;&lt;/li&gt;&lt;li&gt;&lt;font size=&quot;1&quot;&gt;&amp;nbsp;Aggregated Table&amp;nbsp;&lt;/font&gt;&lt;/li&gt;&lt;/ul&gt;&lt;/div&gt;" style="text;html=1;align=left;verticalAlign=middle;whiteSpace=wrap;rounded=0;" parent="1" vertex="1">
          <mxGeometry x="620" y="400" width="135" height="90" as="geometry" />
        </mxCell>
        <mxCell id="Q-cWUL6rgaFLfGCyFg-n-46" value="" style="shape=flexArrow;endArrow=classic;html=1;rounded=0;width=14;endSize=9.57;entryX=0.004;entryY=0.548;entryDx=0;entryDy=0;entryPerimeter=0;" parent="1" edge="1">
          <mxGeometry width="50" height="50" relative="1" as="geometry">
            <mxPoint x="210" y="385" as="sourcePoint" />
            <mxPoint x="262.03999999999996" y="387.08000000000004" as="targetPoint" />
          </mxGeometry>
        </mxCell>
        <mxCell id="Q-cWUL6rgaFLfGCyFg-n-47" value="" style="shape=flexArrow;endArrow=classic;html=1;rounded=0;width=3;endSize=4.17;entryX=0.004;entryY=0.548;entryDx=0;entryDy=0;entryPerimeter=0;endWidth=13;" parent="1" edge="1">
          <mxGeometry width="50" height="50" relative="1" as="geometry">
            <mxPoint x="407.5" y="385" as="sourcePoint" />
            <mxPoint x="447.49999999999994" y="385.04" as="targetPoint" />
          </mxGeometry>
        </mxCell>
        <mxCell id="Q-cWUL6rgaFLfGCyFg-n-48" value="" style="shape=flexArrow;endArrow=classic;html=1;rounded=0;width=3;endSize=4.17;entryX=0.004;entryY=0.548;entryDx=0;entryDy=0;entryPerimeter=0;endWidth=13;" parent="1" edge="1">
          <mxGeometry width="50" height="50" relative="1" as="geometry">
            <mxPoint x="570" y="385" as="sourcePoint" />
            <mxPoint x="610" y="385.04" as="targetPoint" />
          </mxGeometry>
        </mxCell>
        <mxCell id="Q-cWUL6rgaFLfGCyFg-n-49" value="" style="shape=flexArrow;endArrow=classic;html=1;rounded=0;width=14;endSize=9.57;entryX=0.004;entryY=0.548;entryDx=0;entryDy=0;entryPerimeter=0;" parent="1" edge="1">
          <mxGeometry width="50" height="50" relative="1" as="geometry">
            <mxPoint x="740" y="380" as="sourcePoint" />
            <mxPoint x="792.04" y="382.08000000000004" as="targetPoint" />
          </mxGeometry>
        </mxCell>
        <mxCell id="Q-cWUL6rgaFLfGCyFg-n-50" value="BI &amp;amp; Reporting&lt;div&gt;&lt;br&gt;&lt;/div&gt;" style="text;html=1;align=center;verticalAlign=middle;whiteSpace=wrap;rounded=0;" parent="1" vertex="1">
          <mxGeometry x="820" y="260" width="60" height="30" as="geometry" />
        </mxCell>
        <mxCell id="Q-cWUL6rgaFLfGCyFg-n-52" value="Adhoc SQL Queries" style="text;html=1;align=center;verticalAlign=middle;whiteSpace=wrap;rounded=0;" parent="1" vertex="1">
          <mxGeometry x="820" y="360" width="60" height="30" as="geometry" />
        </mxCell>
        <mxCell id="Q-cWUL6rgaFLfGCyFg-n-53" value="Machine Learning" style="text;html=1;align=center;verticalAlign=middle;whiteSpace=wrap;rounded=0;" parent="1" vertex="1">
          <mxGeometry x="820" y="500" width="60" height="30" as="geometry" />
        </mxCell>
        <mxCell id="Q-cWUL6rgaFLfGCyFg-n-54" value="" style="shape=image;aspect=fixed;image=data:image/png,iVBORw0KGgoAAAANSUhEUgAAAMwAAADACAMAAAB/Pny7AAAA8FBMVEX///8AAAD19fX8/Pz5+fkRDg3Q0NDv7+/p6elFRUXBwMDy8vLh4eEcGhkZFxbk5OR+fX3b29tPTk6Tk5OOjo3JycmysrK6urqioaH79fT57u3jWkiqqqx1dXYKBgT45+bwzsxmZWU6OjqHhobRQjPsvrvnoZvz2NbAPTVdXFwsKiohICDSdnHZk4/msa7JVEzfiILWTT/UVkvONiXhbGDfeG7FJRHeTDnSHgDdPyawj46Nbm7Yq6muTEeoY2G7sLC6Jxm2PzjLfXnOvby+DgDBa2a+hIDBpKPKYFnaMxjnhXznlpC/MifiZFXgzs7LaWSVlzGaAAAVNElEQVR4nO1d+X+iypYHik1AEZFFg6JsxiUq4pL09LyX1zd3bhLj5P//b+YUm7ikO/1uf9L4JueHjoIF51tnP1XQBPFJn/RJn/RJn/RJn/RJ/z8J0RT63Tz8IkIUL8vU7+bilxDNyYoiydzv5uMXEM0rLKvIHM/Tv5uVv0tIZjVN4UWaEC9dz5CkCQLLxSKh+cvWM1kwjBQKEMdfsD+jDMsyCgAuWM+QZlo6e3CIly9TNEiyTMvSdYGVRRqhBAQlX6Q/4wTV1E1LkjTDMARNkXlOpGjEXaALQIrVNFlaMw06iTKapkGogbh5eaGG0tSmqYAv1i0hNnmKg2RGApIvzjvzlquqGrYSTrc0MT0KiSZFiReXBXBf/qtpSvFHuYAGCLLNixON/fW///Hlnwr+yAm6IKeHKVmRaPrSREO0erP7f82+ff1D0yAFMGJYoqIoOBcQL000IJzJw/xm9nA/+/bln4amcTw4My4JNuKliQbs/eZ+QBC9SfQSra///J+/cmW7SDTE9GEKCndz//g6u35ZR95s7g/sVquF6AsEg9EgohcFLaJl9/ybycJbvywe5197A7vdurgkzV9PUfvbbJB+bQ2mSy+K1ut1+LqdxpB+K3s/SdOXKTFd+9lXNJgs5t52u51PHkMvfJwEAOlyEE293mBxk7JrB+GqZ68HqNVq273eNJg/etFiHkx9+yKUDt3MetuZHX/urcLAJtpRLz+LTSlYRN7idR749m9i8SfInkzmETYaFITLHgig5U2L59uB5y299cMaPMN08MZFSkO92XUETq01jybJ3Hvb/Ul6Ooue7enS9ueL24eXxSoouXym0cu8RSzWk9RyFqv8VG93uxwgYj4HwbUA0+3D/fWrX2b7aU8ir72IcgjLZfqhtbq9ih3dXZAeQb2Vt15HNyUWjx96C2+Rz/dq0cZ/kL+OtrGw7Nve/sctf7JYP0wGZU0SWnPP8+Z2O+VvG2I7b8+flr3kwPS2ffB7e7parOeDkoYfPwxDL1oGPRszON34oE/LzTzjdhUeD2gH4f36ppzBx370wmjj3XkrwIP8uymaXu1yB22H2+KPkd2bTsJodr1eTEtpO9voOXhe3EWbKFwF28082GQqBjR9KoQX2w9W3kM4CXoLgDMpo2fzoy0BwX4LaeZmAzq3We35b62i3DoGwSpcL+bTnk1Mw0Fvcn990z57wd9JdviM/0D2Ml2G4VV4tdv6GZf+JtWylj+f3YZQ8+AzgzW467a/WL+WLyvIA6W9vLu62myurq6WQSwQtH2KLaM1XUZPK99OpNRaxq4cQfF97Z+94m+kLFDaq6ftarPaPd1trjZX2Af0rp6B/1YQPl0Fdq5vNw+p7aPpw0tw5oK/k7aL+E9v9zRvPQEwe7sBCd0t7dYczL+1vb17LqqTH93knwf3628fzO0PKIhDSe/qbksEd7HegCxA33bPm2c7ePIO80t7tix4sfbsYV6qADrFYHzA0iI2u5TRwSq2ntXuKjjkFTKGA6tvv67nZXJqAAb5mw1w3XvKoiXqxY5gszwKjSjAJUORWt/W30qEJlhAJbAJgKPVVV5D322WgOVqMz/0vr3wRA7tb/c35dG07S5IsNhR6pt6z09X0+fNbglodr3CT+3l4jS02JP7aWmSgVW48WLLCDbxrLeD3d2851/t/EGADWcfS8BgzuUw9utLaeLNLryLsbR3sWAGz3c7v2VfbQKopwerO2+PJoiCU4VCrXZw/VKSXKC1S6fb32Br93cR9sXLu+f4YDt4yjWtF00OsOAc+ubb6+z6/uHhhigF9a7SSPK8BfbnTzvcppnf5dFkuvaW8by3vMXe+G3/5nFxv35Yz3CzsF2WZuHWg+JsYhMDcMP2JtG46d1mz/dgEz3jb4so0aVWL5itHx4erieA4vfw/Ba1VlBphpvdINi2gtskrvTCu6INDMKnAAsLchvbn4e3D+vFZDooGY6YBl7PfgY8u+V0tUlcs726O+gFEr3FouffBYPtYh2Fj1u/JNZ+SsFdGycB4eZq95yE+9b27igXRlNvFUZetFjdlLpRaz+uwEgGSy9Me0vA+eYwdwSf9ex5y3ngl7Upk9E0gijir7xwu3pOrKAXrgqz3/ancHIV+KW0kUNqr2Zt+yaMNtuWH7fMIGPZ5SYRdzDisr806cr3yPemWCweqFh7GeB1gHmYZixtf7sMd9tLEElC9iRcLbzwJTaSLbYeyFgwlpY/X2x2wcAuuZUUCE0jzwvDaBXLYupBRbOe46j4jKv+wWWt09ovq5swfNkl36YPLRSt2r3J+iHcljaUvEWtiecPHqPHVAC9aLDylt7t4vKQAPm3AQCaZWYxWCyjcDH32wjRF6VgmOyHSRsMPQ37tj+5hpTLpmmKujwsrdlsYN8kjWW7t11Ejzd/8BTPIYBzaXtO0M3LoPc66+FOzHQVLb59/V9epHge73QEPOiihBNcT6fXgKXl34RrEIoicxRC2cZGdFFg/MV8Es0G7encu//zrz/wsw3APuLz3fTE5aDpzRazl+ue//py/e0PTeHT55rQxW3SBBo8vlxfX0/g3y8aq7C5ENAFPhJkx1iu72d/4f3ZkpbvA6Qv7+EG+/UeoLwAFFZSAInCZhDEi3u2IcHyClA4gtNYmuBYJcXA7/dqEhfhz+zH++t//fmFVSj8WICGjURmpcSJ5fZP0xcRN+3XNUDREu45TYqXJ6UUjZToG6LFi8hoQMf+8UXIQqPCph8SNHSsbrQoUpcgFtCxV98yMsvgNT79RMuKxBGihKFwlyEWYvBnYNOmkVoG0pT8DOIUhed5xEEOcBFQCPvrABGcaaSPZihakW0KP0Ej8xcChUBxr54yhQQMZYgHp3lFksQzw8pMoGaJpQhS8TBWM5DNgeWXX0i0rsemwmr7Y4hnFY6gJYKXuAKcsoJB+9ReszAMXkf5KYllsU/A8Z+WZXGfd34wk+8kupANSyb4ZkpP/DOiOQVLBX9UYosR9w6tnGB4vvCF0i2NE2IlozmJ1ZTU6rk0Q0MYDoWfRS0lGFkpfkOKpRsGhd9pwELenDswKZcewBFFsZzpGW8cVimioVsCqwkGlJh7fjmlaPpl7TjRelEwiFc03dJ1Q8iL5eRX0tEj9HQp3xGimbn+UBiImTyjfcQqpxyKjyqlZHjViPUHSQLgMA2Wk7FkdP7gV7RS/E5z+MntEpqM1gEtEzWr6ao6G6uSYmqyoevFeUdSwWJojuch2KDy9QM4y9Utt64auRqJuiURkn6AhsuLAUKUpcSYSigZyXUBSJEvVsUxRgEfkB+ltDTG0DGU+CMqYYWm1JuH1iGaibkAGiH1DHTan4FsIIOCwZTP/tm6exAyCcFMX50BdiMkWbKClQxRUANwewAlNBkAUz9474es5trFafhVLfiVLQpUmtIBFBBTCcFIbl0oKD9lmnutoxUDYqcssCAURT4qzEpoMlAl1809m8hQi3JCvCYAsVCYHcsBceUzGbCRurvvU2qqcXBS1gxB0DT2VArlfDMAb9atbJJZ1SywjbVM4xUQjcaesH4iqnIQ28xcgGKqe6Z5wTJwVcYaMhfDOVArVNYXUAhuPe5dKGoz7WHQsmZZbFJYxmUax+J3z8j70FJOLcNkuB2wCkXFxo9oETJOK09flLQlSMssJhw1cYlZUi3DpDXrlqaqGgdlsmHpBQvhhMK6mchLCiZJ5sq8UKOYrts0Nc3QtYO6BbHGoT6B4HhJkqXSahkmzlCbIJrjjqVkSEciwOKRZam8WoYJKbratNhDJnnjMMJAfgZi4Wi5zFoWk8haqnrQD6AEoSgqnNRIHHg0qtxalpCIXwZm5C1mJBj7PE2UFBaSmmRBTSlpkDkkijdU1Up1S9DzsIPDjJyllkiW3xheNkI0aJuJa0/DwlhEmRUMoRgvCUq5pJUNTov7TQLPGrpuGUeZDCEfe7iykxjjsLJas0j0JZj/MWFLwe83ZHGbvNDw4yGsQtQU6UvDBN6Y1eIaQIpf2QioRAWCjKAapqL/uvtkC4xIkn9u65SkKT/+UYGSlIxN8kwFPop4vZNVLeGnLvNd6veTmWH7HZo7KKq+T9qwUqcFHEDon3FKkJRxHA8Uv4CSUmTW+IUOmiT78d86OaIpy3i3g+k7UJk0QDiKwLL/ho9NV5x+7X7gWgNzRNDOcESnW4yy7k8ipSzNyiNEwnmjA9KpyITMuuCsfh0/f4sYd6jCH6OhVmkRqxnfcZw+C3Wj2nAownQcxwJUAvytY4VoOk5DJ+QOM664Tm1kaFzdFCTpR7f5GGJUswPM9k2zRnMdF4nDEcv2h7wxqrkdojk2FbWqExypKkalzhF9UmBVUqcVAKyojsUJouvySknAdE3FYQne4VUMpkmYXTBquWIINdAdijThJ2qXY0nck9ApjcQlsQmamaiZQoi6Tpjm70aRUtfkGyZhDekUTKeRpoc1YNsYY81iRxpNkq4G1qOS2HKMqpaDIUTDLIvJEF2VUDtUxyQyMEMMBgEOAKOPcOBRHAEsqTIem8gd4zHCqACmTARgtIY+ZDMwdQf7f0ERMBithrkVqiwH+sTWq4pJYudmjNhygiFVQupUOnwGRh9rwOVIj8GI4yZNiHWHEqoyFggrkRZkw/W+HIMRHPbHN/hIAjAI3BMimiTN9V2adh3THNZFA5s6oTuu2akYBFdp4KMcYWLvVwEjqUCsZat97Yc3+EjCa0IKXn9gLUQLGiJ43a3rPKFYOFVBglpXNRr/pO5aeAeP0KybuITEgZIy1HKBiYN+HNxRtsk46ZmmAZ9ON1MhMc1ZKA7tT5dwDf+TPukDCFGK5faH/bpqHP0PBJRsqJ1hv6Nqh2uPFBRXh0vlJ0Tz8dC+aykfuTrOWw6ZU7E84/RGfpxpFlt22iirg94gmu3vr/mBsZUdkl2mG9+1y5Bu3iamBYBSY5IT8Hdk7WswtsKQ9e9ck1MBPpNOQ9f5MAfOVsgaOeq7zWazPhztwYgmQ1bJbqXjNt1Ov4Zhudx+0HfBUHX4OdOowzXdfoX8MDA0YGH6RtyPpySjrqbTT5tjpko2zLh1J0p6p8vUyHqG9AdgTJDkyIzXAhDPmp2PAqPB9Pf3Os1l3TpjBFg6+xM8gKuRZmrK3wfDVbq1caGd8GHtPpesjc90rpQhgOwUmUAWU2PGKbrvgxFGTLfxa9l8HzW6TOU090UmGFLlaBdfE+NLPn8fjFmtke4v5fKdhMGcqrTUADDHGNlGt0YmwvoBmHHt7bMyXoQ+o3cKfqLrTEDab3t+a6QUPwtGwZkOWatZJ+exJXWOu2HIhaNJuf99MPqIYZzzp4RK4q9zM6VUslaRCA37cZPQnFqtoKBwslpT3hrZJJmGRAjdeKRiWhohkNXuiWjwRchTeYFT6DrvAMNXmFr3nJ7xHRzLGAbiWTor+FakI+v4MBxCQ5Kp7ls9MsTmOpeNZLKRKANDNmQLB0kGgzE1gh53q6Rz/IzLkKxVT8O2gvXsHWCwV6l16yfrL3wfwoDTabrDETClZ2C6Dc0hRxVnDPjMWo1R8wFYQYyMoZORTbI7NOKRIyuRDGEAmi7ZOWixyiOGHJ72gLk+AOfeAYaDe4MD0Q8vgSCUjmNvj4wKhGMlBcNU+uRQlxQduOEdCLbZALoO7Mb91k4+Uq90yf3IRoMcGpJiaATPshJ2uRV8527cSkpJggP1U1OjOgCGfQcYQumDunSBxSIcDWY3u6oG0xWngVijx+QwvxkMzBMGHlRPxT8SgMMs/RDAu8T7p0AytRHZP9otofUhcYHcq5lvCVHAl7mn3XD0bjAEr47wFJF9fX8zkEYj013RBYXnUjB5+Er4ZprpZz0D5nS7w8ySuDpJDvl0ZHd0Ygy81YCJZMhKtheRBTDNM639OvleMAQS6jUMh8lzGRm+7s1BB92XUpZIt5CQjxmyn94aEt04bsPcVvdNUz31ERSOe+rpGgySLJjIarfaSfD/fckQePMPVAF4itIEwyKL4VkbJ4EMu2ay2BIFh+sk33ngOo4a2Kz2EtAgrdKIN10ugUspE+5cS81eghT5nM1gB8C/FwyGg71id5TEMTDiUcetJ+T2qwkGbMbjoq6AALuJAM1MLYfnR4LNjN+olBB2nLUkVMrOWW/GYzDE+8Hg51BI8JWJ4kO2B343o1qtGrtY7Jqdg0UECI79eMZG2T0c5mBktZpPg/Nm2YcsjAbLnuufyWZwO/Z9QbNIWFeSIqmBde6A8GMCGEzlAExm9grJjBJ9GzHHI410Ghpvr6XQJmhhnU4/6CeJEkQ0Uv1JMLHaxMxBcK/oQoHi1cxTMCJ2yAT2Nt1hcgRij3M4MvZmze+CIViH6VbwLGJ31jg2Gq4DEJWfBQORo9Y14r/MmXufgoHYSvZlAo2YWurCIBlunCr9DyRDSENQYAwG7KdKHpc5kJqRaXT+GTC4msCX2rup74OBmWTGkDSOGSeNFG4hkBZG/kAykHyRsWQIo8p0R4dWA/Va7kR/BkwzlQxOANSTs2fA8JCxmESdyYqnOAE4P/IIjFDctGfgNCbZC1bH1VnRV0hYyTr0e8CwxVvQTjeZVwQ5b6NwxaRQOQMGLBYSfZjXbDJpmI4zI08lUynkZGxh7hVwPmQjz6ZpY1hEh8G8XUuqfXP/WpZmXn9jEXXy6lWOlxnOgSHYcdcxHXJfEuFmTz0fKen5yCMwMKavCgovK4KL+c8TN9bBqU/f1BRJ0dT+CGPJn+wHMN2K2sxIPbwmBPWhq7MyL7FmBzdqkicDeJyu9ZOnOVlzmDByDgx4mnFjTO4zGDyymo1UG0medkYy4PbAvCqNRsXBzaTG3k7YCk4Jqk6lUnFquKU33O9NBjDVfRg7ti61xnShzMDXHIM0anlPpwvfRsN+pz+sQBGVJfInYCDU1ODWxQ4quR8JTObTcAQG8icmYwvyuuJJnNmmkRfy325hgz8GyjBvgrFwCzQfOBb2c+Dgm3UxkWlLMa40j8Hgy+fmnxwZFUYmOXBcaR4raH2cxdX6cXIg1+PjkHn0hYP0FHNVADM+yhZ4M+9eVw4cvGhmN8tacmfBUOCMyUNmOLWWcSnlPyJPZIqZxv8V+fkNTbSixcXuTzfy44cYzqwUiKz2b+0cSq74t/d1QrVcOzsHF0kSbm9WtIvYhfxjknCQGZksT9Niyffvv4NkbDek01FVt3/5+sa72cLTW8XdJZFopOt6zH8AGBAOa9UhBlsXbzMJIUoUS/hc9Sd90id90id90id90n8K/R9knfFXua2kxQAAAABJRU5ErkJggg==;" parent="1" vertex="1">
          <mxGeometry x="260" y="103.52" width="60" height="56.48" as="geometry" />
        </mxCell>
        <mxCell id="Q-cWUL6rgaFLfGCyFg-n-55" value="" style="shape=image;aspect=fixed;image=data:image/png,iVBORw0KGgoAAAANSUhEUgAAAJgAAACUCAMAAABY3hBoAAAAclBMVEX6+vpBQUMAAAD///9+fn4+PkA7Oz1aWl3p6er29vY4ODozMzXy8vLj4+QwMDLm5ubb29tGRknV1dVOTk+Li4vBwcHJycm1tbWnp6e7u7t0dHWtra0rKy3Pz8+Xl5dvb29hYWIhISQVFRmfn58IBg8PDxEtwQhKAAAJh0lEQVR4nO2b6XqjuBKGoUsSILEIJFaziDBz/7d4SmA7BjzJmXmMkx983fHSJvbbJak2yY5z6tSpU6dOnTr1ewTgJFHkBw78NMlKEObaE23Llc7DX4QGheGCUdd1meCm+z1k/WihrmKj/mmeq0DH7kpx//SydxsSytHdKL7sIcIsC9+6MiBRyziy9j6edNxeFPZp2zIdvZEMymUgmSnTO1m7MVnQtAwl1DvJBr4MXwkXcV8AzfqaPqa0IYrxIXwfGP2ImWVREHj8NpZmBeArRmuADMne40vAykkqY8ewnSBy2RXM8x8vy2JOEAhNuh3jg7B82RVdgg8aC0QLtIl4Bta1XFuwUrTV4WDg5I1KEUKZqfNmr+9mEJrYRoA1mJNQ5iUAAeFxfjhYrkZGLQ+l8dVRUFFjdGrcVvA1WDAwrvK8iTfABwg0Z1u3SsUHK9EusiTGrIaywhdZHHM6lkcbTLd7LK+P5rCzLIkH9S0OJUcwdTQX5GLLxXjvA8iy11r3Zd59XgtauGPv19NUHu5eQW3HkSqJq8G4nAv8w3GOgRMs0jEV/RzCr3aEw8I5ZB9bg7UdSDPecXGSQ2SUVcrdlY+AMOuy4Bg0uOxmGG+mlH8+ncFSbsUoet6H360NhtShOIQM+t0Uw9T1IVe8WsybpepHrumDMsHYX4dEgCcW2045BAuSq64I82LtcGCN9jAhkQeQgRwfIejOo209//JLXddljeC4EBzCRX+IyQx/YKj1bmT3YFCMVpzalAyky4fgCLA8juM2nqcVw0/YzbkdGNQYvzBVpHaQHYjUMWCOU3RSZvWcVIvGgUZ8DQaXkfIBfa/HbNSCSYhDSim4akle2x6iZU3SWXswqHDOkxB/o2xp2uc9x3j/+jkGjrwQhfnOLWEV+exAuEg9Y4xKBZ/BrNt37J0NloLMIAGJKYYG2uqXcwHkDWtt3X1fjbyBgvKWXGyBBn52GVqcST5pGh2Cr5tB3EtNCEnbihYH8tVg+M6cu5sZxYLIHTIcKT+SEY6YI4cEklQIhXzKGujuHPC1SlfyxVT4vr67KbutxijEKZ1NXoweQXiTxKwM602camgxzG7pKlgeEsTDYR+NcPpjIhb0bryMLYtTbT9bShk5893rDbTVrk2xDKWL9kkfXqHtXL7d05xn7+S8spUG0fiEy8UV55uVJb/L7cG5kIZUL0OD/pnBXNZtX/gGDDMPgemkMK+K5GDoE66xguwbz7+VElS46GXVizoGgbcHoyOBx6B+B4NbUbLcwYNs4yqPcrVrvrwQjHk1FrJPgjgkXpq6Bqe4cT1ctcRN72Lu2GEoz0ZmXgMGw64ISSUEWxeCNaRCB6s4E54FizHVwTjP7qLu3ECDv6j3mhzjSepKu1ytuRhPjc4D9KxomweLpQqfzz/KumS0WDJS8xIu9K98O5a0bdf/1JpKzpMqSKIo8u0SjBK0i312ld8LNkiMWyx+VR4L1TfZPuMTxkp56f3PivxzCdwUjowpoxhrX9fK6L8k4zhoYak+WvW1H+tUjIlbrF5ZxTXjM192tRcmFZnBkPmt5480+2DkpS0DqJVY1ibfNXzYBS5zJP+23XQd3Rdy2f55ZcYRi5GmnDbGo55elsIMFobhnMHi3Xt61bYFVvdaYhV2a6CzW++V3wgxQ8RKfMB8bMBqfNVHPK6psrw5yOnW9GF643lnz4+rzvJ5DB3uZ+kBflEX/nFoEOg0vtlJOcV2TBFMfHy4CEY/sMxlN5tB5THOvMM6eNC58ecODQtu+zafYPccGm8acW/5aCwwY04/pmPIQLLHsYt9/wnY59UhiW0igSqE2zbT0Lo0O4TMX+c534Bhomrbirqu64HzyT4VBzVV1pGJMif6EmwpFkTbtoxi3uHYpt4xvYt1D5YPUDAuYvEFmNOPAnVsUwWidQ82LmHydFVW6T+C2f2aaZoqw7ida318SFMFunE1bhixo8BO7XuCe1+VDz3/+WGNkUFXWlB+xN4N5sQPXCzO8bOjWpPPUmX2Y4OZ5a3WH8Yszh97Bi9V+ADGFP7f60G04iGmX7vWcx7N04fkBhckwzWQHuXGhru3oOiQkkbsqySI3Da2Ypvd06iu6qO2uqC7GYfih2bttkiai5FgyaOzAWtIjECryXYQl/O5yYV+Um72b6gYFSnD++QPTUxZCUleyzccvQAilpZm6HjrYRRKy5VNbECi3KATa71j4tBalRD2TArUa9cR68huwk0Ps2guiJmL3pXzN5CBbBj/kGDYigtdRze4XK2D+MAo1336nuMNAH5FnCh9CJJUdbhER771/H7K0g5szhgfs7u1Q8P1uQreBUhPuE+PNzjz8YZnp36OYStWBoNo2bPcHm+Il+MNbzp3sXzmakk2HnP3YE5EmZLWcfD3DKUFW2eIjLrPwBwiWDphts/MUT5/T0a2XX+reUo9XBThzIvRz4r3HRPcpEBX/dk0V5EM88TRPf6cysNnPtmH3if0tgNUde89DRiaLVmrn6TNx2yIfCVwzGqjnvNjksD/oKBy721FPh50dOE/CZJJxWJWU7yptfP/CedP0pVlLt9/2vVbPRZEp06dOvVccLu9tjaD5dH8d3kAzk98lwTKNoKkLQG0SuzXNJQJVYaZTqAvUuXQkXBQiryfDFP5CSo+QeCZGiTPnRAEgqUOqaRrgmIIVRe88Vj6HawnBozWUAx5g0/suMVTXrkBghlSZUPoXYrjz17swUhuLgSZtC5jIDbpATGQhlqLDZFbNqHXkMPPDD8BM0Wf1sUQGN27ReXZsMkzSNRsMegVCVXyE2EUVJG1fmFkGsDUOJ6ppqDtIJqH0gNgOMdI/wPZI9SJUzhJHhVYzdVOWE9lUPoQ1k4h/Rzr8DzIL5cfGMqrl4LbqWX7YHZozvIA4AcS/lOv0X7YfmKCSdvIKUlDHMhJ5ASakAKmCZw+KS6OziHpMU6RoX+z74ecIVgzRViIDG4JISs65g9/MlCyIgFXvnShTnOZHXMi95/BihTByCQjDNu5B6GSSeoT7TlGXojjaZ2o8KUHLP4dmDIEShK6QcBUWsJQmHIBy2jhJdwPh3d/IdSCATR2P4l4xr04yq8NgkVeasFUUKZe6NUA77YaFKK+SELqMuEJVENIZdD6Jof+b1k1gRuCaqEUl0K8swflzKtS667GmwxXn98nvQ99VGXga7sq+xAyDfjTVG9rJt7IPnU7AXW/uYWk/XeVTp06derUqVOnTp06derUqVO/VeSXyvnzS3WC/Vv9D70rnWHvL10xAAAAAElFTkSuQmCC;" parent="1" vertex="1">
          <mxGeometry x="820" y="439.63" width="62" height="60.37" as="geometry" />
        </mxCell>
        <mxCell id="Q-cWUL6rgaFLfGCyFg-n-56" value="" style="shape=image;aspect=fixed;image=data:image/jpg,/9j/4AAQSkZJRgABAQAAAQABAAD/2wCEAAkGBwgHBgkIBwgKCgkLDRYPDQwMDRsUFRAWIB0iIiAdHx8kKDQsJCYxJx8fLT0tMTU3Ojo6Iys/RD84QzQ5OjcBCgoKDQwNGg8PGjclHyU3Nzc3Nzc3Nzc3Nzc3Nzc3Nzc3Nzc3Nzc3Nzc3Nzc3Nzc3Nzc3Nzc3Nzc3Nzc3Nzc3N//AABEIAJQAlAMBEQACEQEDEQH/xAAbAAEAAwEBAQEAAAAAAAAAAAAAAQQFBwMGAv/EAD0QAAIABQAECAsHBQAAAAAAAAABAgMEBRE1cXKyFSMyUXN0ksESFiEkNEFSVGKTsRMUIjEzU5EGQmGBgv/EABoBAQACAwEAAAAAAAAAAAAAAAABAwIEBQb/xAAuEQEAAQIDBQcFAQEBAAAAAAAAAQIDBBFxFDEyM5EFExU0UWGxEkFSgcEiUyH/2gAMAwEAAhEDEQA/AO4gAAAAAAAAAHjVzlT0s6c1lS4HFjnwiq9c7q3VXP2jNlRT9VUU+r4afda2fMccVTMhy+TA/BS/g8Xcx+JuVTVNcxp/47VOHtUxl9Ly+/1nvU/5jK9rxH/Seqe5t/jCOEKz3qf8xja8R/0nqnubf4wcIVnvc/5jJ2vEfnPU7m3+MI4QrPe5/bY2vEfnPU7m3+MPWmvFdTTVMVRMjS/OGN5TRbZ7QxNqrP65nVhXhrdUZZPvKaap0iXOh5MyFRLU1k9nariuiK4+8ZuNVT9NUxP2epYxAAAAAAAAAAABSvGiqzoY/oauO8tc0n4W2ObTq5+2eFd1AEAMgRkkQB0a1aLo+gg3Ue7wnl7ekfDg3uZVrK2bCsAAAAAAAAAAAFK86JrOhj+hq43y1zSfhbY5tOrnrPCu6jIDJIgZASIYHR7Touj6CDdR7rCeXt6R8ODe5lWsrZsKwAAAAAAAAAAAUrzomt6GP6M1cb5a5pPwtsc2nWHPGeGd1AAkRkCMgQB0m0aKo+gg3Ue6wnl6NI+HBvcyrWVs2FYAAAAAAABXqKyTTtKZF+J+pLLNTEY2zh5yrn/1nRbqr3PDham+Psmv4vhvfos2es4Wpvj7JHi+G9+hs9atcbhIqKCpkS/C8OZLihhyvJlopxPaeHuWa6Kc85iYWW7FdNcVT9nyXBtR8H8nmfol0+9pQ7dUL2H/AND6ZO9pU44YoInDGmol+aZiszzfkBkkRkJdKtGiqLoIN1HucJ5ejSPhwL3Mq1lbNhWAAAAAAAAfN1zbrJ2X/dg8djZmcTXn6ulaj/EK5q5rAJyflsgRkCGyEsi7YU+B+tw+UxqXW9yhkxWDZIgJdLtGiqLq8vdR7jCeXo0j4cG9zKtZXDYVAAAAAAAAHzFc/PJ22zxuN8zXq6lrgh4ZNVmjIEZCUZIEAZN4fHS9nvMZX29zPyQsAIyB02z6Joury91HuMJ5ejSPhwb3Mq1lcNhUAAAAAAAAfL1z88nbbPG43zNerqWuCFds1ViGyBGQIyEmSBk3f9aXs95C63uZ4WGQIJHTrNomi6vL3Ue2wnIo0j4cG9zKtZXDYVAAAAAAAAHytf6bP22eMxvma9XUtcuFfJqrEMAQnJ+WwnJGRmMq7vjoNnvIW29ygTksQAyB0+zaIoury91HtsJyKNI+HBvcyrWVw2FQAAAVqyocmFKHlM0sXiZsxEU75WW6Pq3qX3uf+4/4OZtl/wDJsd3T6IdXO/cZG2X/AMju6PQ+9z/3GRtl/wDI7uj0VY5cEyNxxwpxRPLZqV0xXVNVW+VkTMRlD8/YSvYRh3dHon6qlaqkQwQqODyL1opu24pjOFlFWc5Sq5NZajPOBGSBlXb9aDZ7yYXW9yiSzQyRGfIB1GzaIoery91HtcLyKNI+HBvc2rWVw2FQAAAZ1zf4pepnI7T30/v+Nix91PJzM16DEQEhAgZjwrXini/0U3p/wzt8TOyaTYQAyBk3Z8dBs95lC2jco5JZobJEAdSsuiKHq8vdR7TC8ijSPhwb3Mq1ldNhUAAAGddOVL1M4/afFR+/42bH3UTlr0EZgMwIzSgjMeFb6O9aKb3Azt8TNNReMgfnISyrt+tBs95nTuWUblHJkzRkJRkkdUsuh6Hq0vdR7TC8ijSPhwL3Mq1ldL1QAAAZt05cvUzjdqcVH7/jZsfdROVm2EEZgQZAzTkggV61+bxa0VXuBnb4mdk1F78gRkhLKuz46DZ7yyjcso3KJmzAIA6rZdD0HVpe6j2mF5FGkfDgXubVrK6XqgAAAzLty5epnF7V4qP3/Gzh90qJyWwgJCBBAEZpV65+bRa0V3eFnb4mY2ai9AEEDLur46DZ7y2hZRuUTNmgkRkDq9k0NQdWl7qPZ4XkUaR8OBe5lWsrpeqAAADMu3LlamcTtbio/f8AG1h/uoHJbCCMwIzSggMgVq5+bRa0VXeFnb4mYaua/JASEJZV1fHQbPeXW9zKjcpFjNBIhsiR1iyaGoOrS91Hs8NyKNI+HAvc2rWV0vVAAABl3flytTOH2vxUfv8Ajaw+6WecjNsjIEZIENhJkgVq5+bRa0VXOFnRxMzJrr0NkJRkDLuj46DZ7y63uZ07lJstZIyBAncl1qyaFoOrS91HssNyaNI+Hn7/ADatZXS9UAAAGXeOXK1M4Xa/FR+/42sNulnZOO2kNgQRmDIEECvXejRa0V3J/wAs7fEy8mu2ENgMkJZV1fHQbPeX2tzOncpFzJAEMDrdj0LQdWl7qPZYbk0aR8PP3+bVrK8XKgAAAyrznwpT9WGcLtiJ+qidf42sN92acVtDAggCEoAr3D0aLWiu5ws7fEyihsZIbIMgDLur46DZL7O5nSpFzJBIhsgdftEuKTaqOVMWI4JEuGJf5UKPZ2Imm1TE+kPPXZiblUx6ytlqsAAAPObKgnQeBMh8KEqu2aL1P01xnDKmqaZzhW4LpuaPtGl4Thvfqs2is4Lpvj7RHhOG9+qdouHBdN8faHhOG9+ptFxHBVNzR9oeE4b36m0XDgqm5o+0PCcN79TaLj8TbNSTYHBGo8PmiInsjCzGU59UxibkTm8fFy3803tmPgmE9J6strue3RHi5b+ab2x4JhPSeptl326Hi3b+ab2x4JhPSeptl326PGd/SNqnRJxqdlLHkmGdPZGFp3RPVO23fbo8/Eu0ezP+azLwvDek9Tbbvt0R4l2j2Z/zR4Xh/Seqduu+3R70f9KWmjnwz4JMcccLzD9pG2k+fBZb7Pw9ur6ohhXjLtUZTLbSwbrWSAA//9k=;" parent="1" vertex="1">
          <mxGeometry x="820" y="192" width="58" height="58" as="geometry" />
        </mxCell>
      </root>
    </mxGraphModel>
  </diagram>
</mxfile>
